<svg width="30" height="30" viewBox="0 0 30 30" fill="none" xmlns="http://www.w3.org/2000/svg">
<path d="M24.8438 3.75H19.6875V2.8125C19.6875 1.2617 18.4258 0 16.875 0H13.125C11.5742 0 10.3125 1.2617 10.3125 2.8125V3.75H5.15625C3.86391 3.75 2.8125 4.80141 2.8125 6.09375V9.375C2.8125 9.89273 3.23227 10.3125 3.75 10.3125H4.26234L5.07229 27.3213C5.14383 28.8234 6.37781 30 7.88156 30H22.1184C23.6222 30 24.8562 28.8234 24.9277 27.3213L25.7377 10.3125H26.25C26.7677 10.3125 27.1875 9.89273 27.1875 9.375V6.09375C27.1875 4.80141 26.1361 3.75 24.8438 3.75ZM12.1875 2.8125C12.1875 2.29559 12.6081 1.875 13.125 1.875H16.875C17.3919 1.875 17.8125 2.29559 17.8125 2.8125V3.75H12.1875V2.8125ZM4.6875 6.09375C4.6875 5.83529 4.89779 5.625 5.15625 5.625H24.8438C25.1022 5.625 25.3125 5.83529 25.3125 6.09375V8.4375C25.0236 8.4375 5.88475 8.4375 4.6875 8.4375V6.09375ZM23.0548 27.2321C23.031 27.7328 22.6196 28.125 22.1184 28.125H7.88156C7.38029 28.125 6.96896 27.7328 6.94518 27.2321L6.13945 10.3125H23.8605L23.0548 27.2321Z" fill="black"/>
<path d="M15 26.25C15.5177 26.25 15.9375 25.8302 15.9375 25.3125V13.125C15.9375 12.6073 15.5177 12.1875 15 12.1875C14.4823 12.1875 14.0625 12.6073 14.0625 13.125V25.3125C14.0625 25.8302 14.4822 26.25 15 26.25Z" fill="black"/>
<path d="M19.6875 26.25C20.2052 26.25 20.625 25.8302 20.625 25.3125V13.125C20.625 12.6073 20.2052 12.1875 19.6875 12.1875C19.1698 12.1875 18.75 12.6073 18.75 13.125V25.3125C18.75 25.8302 19.1697 26.25 19.6875 26.25Z" fill="black"/>
<path d="M10.3125 26.25C10.8302 26.25 11.25 25.8302 11.25 25.3125V13.125C11.25 12.6073 10.8302 12.1875 10.3125 12.1875C9.79477 12.1875 9.375 12.6073 9.375 13.125V25.3125C9.375 25.8302 9.79471 26.25 10.3125 26.25Z" fill="black"/>
</svg>
