<svg width="147" height="171" viewBox="0 0 147 171" fill="none" xmlns="http://www.w3.org/2000/svg">
<path d="M95.6328 5.85938H66.1406H36.8438C35.2258 5.85938 33.9141 7.1707 33.9141 8.78906V94.1406H66.1406H76.182C78.934 97.5502 85.7482 100 89.5781 100C94.3521 100 98.5625 96.0955 98.5625 91.2109V8.78906C98.5625 7.1707 97.2508 5.85938 95.6328 5.85938Z" fill="#F0F7FF"/>
<path d="M89.5781 100C94.3521 100 98.5625 96.0955 98.5625 91.2109V8.78906C98.5625 7.1707 97.2508 5.85938 95.6328 5.85938H66.1406V94.1406H76.182C78.934 97.5502 85.7482 100 89.5781 100Z" fill="#DFE7F4"/>
<path d="M116.141 20.7031H113.211H110.281L104.422 23.6328V29.4922L110.281 32.4219H113.211H116.141L122 29.4922V23.6328L116.141 20.7031Z" fill="#613D5C"/>
<path d="M122 29.4922V23.6328L116.141 20.7031H113.211V32.4219H116.141L122 29.4922Z" fill="#4B2746"/>
<path d="M117.148 70.5078H113.211H108.999L104.422 73.4375C104.422 73.7305 104.48 74.082 104.598 74.3748L110.457 92.1482C110.809 93.3201 111.922 94.1406 113.211 94.1406C114.5 94.1406 115.613 93.3203 115.965 92.1482L121.824 74.3748C121.941 74.082 122 73.7305 122 73.4375L117.148 70.5078Z" fill="#FFE1BA"/>
<path d="M115.965 92.1482L121.824 74.3748C121.941 74.082 122 73.7305 122 73.4375L117.148 70.5078H113.211V94.1406C114.5 94.1406 115.613 93.3203 115.965 92.1482Z" fill="#FFBFAB"/>
<path d="M54.4219 35.3516C53.6723 35.3516 52.9227 35.0655 52.3506 34.4932L46.4912 28.6338C45.3469 27.4895 45.3469 25.6354 46.4912 24.4911C47.6356 23.3467 49.4897 23.3467 50.634 24.4911L54.4219 28.2792L58.21 24.4911C59.3543 23.3467 61.2084 23.3467 62.3528 24.4911C63.4971 25.6354 63.4971 27.4895 62.3528 28.6338L56.4934 34.4932C55.9211 35.0655 55.1715 35.3516 54.4219 35.3516Z" fill="#9CDD05"/>
<path d="M54.4219 52.9297C53.6723 52.9297 52.9227 52.6436 52.3506 52.0713L46.4912 46.212C45.3469 45.0676 45.3469 43.2135 46.4912 42.0692C47.6356 40.9249 49.4897 40.9249 50.634 42.0692L54.4219 45.8573L58.21 42.0692C59.3543 40.9249 61.2084 40.9249 62.3528 42.0692C63.4971 43.2135 63.4971 45.0676 62.3528 46.212L56.4934 52.0713C55.9211 52.6436 55.1715 52.9297 54.4219 52.9297Z" fill="#9CDD05"/>
<path d="M54.4219 70.5079C53.6723 70.5079 52.9227 70.2217 52.3506 69.6495L46.4912 63.7901C45.3469 62.6458 45.3469 60.7917 46.4912 59.6473C47.6356 58.503 49.4897 58.503 50.634 59.6473L54.4219 63.4354L58.21 59.6473C59.3543 58.503 61.2084 58.503 62.3528 59.6473C63.4971 60.7917 63.4971 62.6458 62.3528 63.7901L56.4934 69.6495C55.9211 70.2217 55.1715 70.5079 54.4219 70.5079Z" fill="#9CDD05"/>
<path d="M113.211 29.4922H104.422V73.4375H113.211H122V29.4922H113.211Z" fill="#FABE2C"/>
<path d="M113.211 29.4922H122V73.4375H113.211V29.4922Z" fill="#FF9100"/>
<path d="M113.211 11.9141C108.347 11.9141 104.422 15.8396 104.422 20.7031V23.6328H113.211H122V20.7031C122 15.8396 118.074 11.9141 113.211 11.9141Z" fill="#FF641A"/>
<path d="M122 20.7031C122 15.8396 118.074 11.9141 113.211 11.9141V23.6328H122V20.7031Z" fill="#F03800"/>
<path d="M66.1406 35.3516H83.7188C85.3381 35.3516 86.6484 34.0412 86.6484 32.4219C86.6484 30.8025 85.3381 29.4922 83.7188 29.4922H66.1406C64.5213 29.4922 63.2109 30.8025 63.2109 32.4219C63.2109 34.0412 64.5213 35.3516 66.1406 35.3516Z" fill="#613D5C"/>
<path d="M83.7188 47.0703H66.1406C64.5213 47.0703 63.2109 48.3807 63.2109 50C63.2109 51.6193 64.5213 52.9297 66.1406 52.9297H83.7188C85.3381 52.9297 86.6484 51.6193 86.6484 50C86.6484 48.3807 85.3381 47.0703 83.7188 47.0703Z" fill="#613D5C"/>
<path d="M83.7188 64.6484H66.1406C64.5213 64.6484 63.2109 65.9588 63.2109 67.5781C63.2109 69.1975 64.5213 70.5078 66.1406 70.5078H83.7188C85.3381 70.5078 86.6484 69.1975 86.6484 67.5781C86.6484 65.9588 85.3381 64.6484 83.7188 64.6484Z" fill="#613D5C"/>
<path d="M86.6484 32.4219C86.6484 30.8025 85.3381 29.4922 83.7188 29.4922H66.1406V35.3516H83.7188C85.3381 35.3516 86.6484 34.0412 86.6484 32.4219Z" fill="#4B2746"/>
<path d="M86.6484 50C86.6484 48.3807 85.3381 47.0703 83.7188 47.0703H66.1406V52.9297H83.7188C85.3381 52.9297 86.6484 51.6193 86.6484 50Z" fill="#4B2746"/>
<path d="M86.6484 67.5781C86.6484 65.9588 85.3381 64.6484 83.7188 64.6484H66.1406V70.5078H83.7188C85.3381 70.5078 86.6484 69.1975 86.6484 67.5781Z" fill="#4B2746"/>
<path d="M77.8594 0H66.1406H54.4219C52.8025 0 51.4922 1.31035 51.4922 2.92969V8.78906C51.4922 10.4084 52.8025 11.7188 54.4219 11.7188H66.1406H77.8594C79.4787 11.7188 80.7891 10.4084 80.7891 8.78906V2.92969C80.7891 1.31035 79.4787 0 77.8594 0Z" fill="#FF641A"/>
<path d="M80.7891 8.78906V2.92969C80.7891 1.31035 79.4787 0 77.8594 0H66.1406V11.7188H77.8594C79.4787 11.7188 80.7891 10.4084 80.7891 8.78906Z" fill="#F03800"/>
<path d="M80.7891 91.2109C80.7891 89.5926 79.4773 88.2812 77.8594 88.2812H66.1406H24.9297C23.3117 88.2812 22 89.5926 22 91.2109V94.1406C22 97.3764 24.6232 100 27.8594 100H66.1406H89.5781C84.7146 100 80.7891 96.074 80.7891 91.2109Z" fill="#DFE7F4"/>
<path d="M80.7891 91.2109C80.7891 89.5926 79.4773 88.2812 77.8594 88.2812H66.1406V100H89.5781C84.7146 100 80.7891 96.074 80.7891 91.2109Z" fill="#C7CFE1"/>
<path d="M20.7031 137.348H13.6719V161H7.91016V137.348H0.996094V132.562H20.7031V137.348ZM19.0234 149.75C19.0234 146.547 19.7786 144.034 21.2891 142.211C22.7995 140.388 24.8893 139.477 27.5586 139.477C30.2539 139.477 32.3568 140.388 33.8672 142.211C35.3776 144.034 36.1328 146.56 36.1328 149.789V151.137C36.1328 154.353 35.3841 156.866 33.8867 158.676C32.3893 160.486 30.293 161.391 27.5977 161.391C24.8893 161.391 22.7799 160.486 21.2695 158.676C19.7721 156.853 19.0234 154.327 19.0234 151.098V149.75ZM24.5703 151.137C24.5703 154.913 25.5794 156.801 27.5977 156.801C29.4596 156.801 30.4622 155.225 30.6055 152.074L30.625 149.75C30.625 147.823 30.3581 146.397 29.8242 145.473C29.2904 144.535 28.5352 144.066 27.5586 144.066C26.6211 144.066 25.8854 144.535 25.3516 145.473C24.8307 146.397 24.5703 147.823 24.5703 149.75V151.137ZM48.0664 149.789C48.0664 146.326 48.6523 143.741 49.8242 142.035C50.9961 140.329 52.7018 139.477 54.9414 139.477C56.569 139.477 57.9232 140.18 59.0039 141.586V131H64.5703V161H59.5508L59.2969 158.852C58.1641 160.544 56.7057 161.391 54.9219 161.391C52.7083 161.391 51.0156 160.544 49.8438 158.852C48.6849 157.159 48.0924 154.672 48.0664 151.391V149.789ZM53.6133 151.176C53.6133 153.259 53.8346 154.717 54.2773 155.551C54.7201 156.371 55.4688 156.781 56.5234 156.781C57.6172 156.781 58.444 156.293 59.0039 155.316V145.668C58.457 144.626 57.6367 144.105 56.543 144.105C55.5273 144.105 54.7852 144.516 54.3164 145.336C53.8477 146.156 53.6133 147.615 53.6133 149.711V151.176ZM68.0078 149.75C68.0078 146.547 68.763 144.034 70.2734 142.211C71.7839 140.388 73.8737 139.477 76.543 139.477C79.2383 139.477 81.3411 140.388 82.8516 142.211C84.362 144.034 85.1172 146.56 85.1172 149.789V151.137C85.1172 154.353 84.3685 156.866 82.8711 158.676C81.3737 160.486 79.2773 161.391 76.582 161.391C73.8737 161.391 71.7643 160.486 70.2539 158.676C68.7565 156.853 68.0078 154.327 68.0078 151.098V149.75ZM73.5547 151.137C73.5547 154.913 74.5638 156.801 76.582 156.801C78.444 156.801 79.4466 155.225 79.5898 152.074L79.6094 149.75C79.6094 147.823 79.3424 146.397 78.8086 145.473C78.2747 144.535 77.5195 144.066 76.543 144.066C75.6055 144.066 74.8698 144.535 74.3359 145.473C73.8151 146.397 73.5547 147.823 73.5547 149.75V151.137ZM103.594 161H98.0469V131H103.594V161ZM113.672 161H108.125V139.867H113.672V161ZM107.871 134.398C107.871 133.539 108.145 132.836 108.691 132.289C109.238 131.742 109.967 131.469 110.879 131.469C111.79 131.469 112.52 131.742 113.066 132.289C113.613 132.836 113.887 133.539 113.887 134.398C113.887 135.245 113.613 135.948 113.066 136.508C112.533 137.068 111.803 137.348 110.879 137.348C109.954 137.348 109.219 137.068 108.672 136.508C108.138 135.948 107.871 135.245 107.871 134.398ZM127.305 155.336C127.305 154.867 127.077 154.438 126.621 154.047C126.178 153.643 125.182 153.103 123.633 152.426C121.354 151.501 119.785 150.544 118.926 149.555C118.079 148.565 117.656 147.335 117.656 145.863C117.656 144.014 118.32 142.491 119.648 141.293C120.99 140.082 122.76 139.477 124.961 139.477C127.279 139.477 129.134 140.076 130.527 141.273C131.921 142.471 132.617 144.079 132.617 146.098H127.09C127.09 144.379 126.374 143.52 124.941 143.52C124.355 143.52 123.874 143.702 123.496 144.066C123.118 144.431 122.93 144.939 122.93 145.59C122.93 146.059 123.138 146.475 123.555 146.84C123.971 147.191 124.954 147.699 126.504 148.363C128.757 149.197 130.345 150.128 131.27 151.156C132.207 152.172 132.676 153.493 132.676 155.121C132.676 157.009 131.966 158.526 130.547 159.672C129.128 160.818 127.266 161.391 124.961 161.391C123.411 161.391 122.044 161.091 120.859 160.492C119.674 159.88 118.743 159.034 118.066 157.953C117.402 156.872 117.07 155.707 117.07 154.457H122.324C122.35 155.421 122.572 156.143 122.988 156.625C123.418 157.107 124.115 157.348 125.078 157.348C126.562 157.348 127.305 156.677 127.305 155.336ZM142.539 134.672V139.867H145.371V144.027H142.539V154.516C142.539 155.349 142.65 155.922 142.871 156.234C143.105 156.547 143.548 156.703 144.199 156.703C144.733 156.703 145.169 156.658 145.508 156.566L145.469 160.863C144.531 161.215 143.516 161.391 142.422 161.391C138.854 161.391 137.051 159.346 137.012 155.258V144.027H134.57V139.867H137.012V134.672H142.539Z" fill="white"/>
</svg>
